<?xml version="1.0" encoding="UTF-8"?>
<svg xmlns="http://www.w3.org/2000/svg" xmlns:xlink="http://www.w3.org/1999/xlink" width="16pt" height="16pt" viewBox="0 0 16 16" version="1.1">
<g id="surface1">
<path style=" stroke:none;fill-rule:nonzero;fill:#999999;fill-opacity:1;" d="M 15.375 3.421875 C 14.832031 3.664062 14.25 3.824219 13.636719 3.898438 C 14.261719 3.523438 14.742188 2.929688 14.96875 2.226562 C 14.382812 2.570312 13.738281 2.824219 13.046875 2.960938 C 12.492188 2.367188 11.703125 2 10.835938 2 C 9.164062 2 7.8125 3.355469 7.8125 5.027344 C 7.8125 5.265625 7.835938 5.496094 7.890625 5.71875 C 5.375 5.59375 3.140625 4.386719 1.648438 2.554688 C 1.390625 3 1.242188 3.523438 1.242188 4.074219 C 1.242188 5.125 1.773438 6.054688 2.585938 6.597656 C 2.09375 6.585938 1.625 6.445312 1.21875 6.21875 C 1.21875 6.230469 1.21875 6.242188 1.21875 6.257812 C 1.21875 7.726562 2.261719 8.945312 3.648438 9.226562 C 3.394531 9.292969 3.125 9.332031 2.851562 9.332031 C 2.65625 9.332031 2.464844 9.3125 2.28125 9.273438 C 2.664062 10.476562 3.785156 11.351562 5.109375 11.378906 C 4.074219 12.191406 2.769531 12.675781 1.351562 12.675781 C 1.105469 12.675781 0.867188 12.660156 0.628906 12.632812 C 1.960938 13.5 3.554688 14 5.257812 14 C 10.828125 14 13.875 9.382812 13.875 5.382812 C 13.875 5.25 13.871094 5.117188 13.867188 4.992188 C 14.453125 4.5625 14.96875 4.03125 15.375 3.421875 Z M 13.570312 4.585938 L 13.351562 4.742188 L 13.363281 5.011719 C 13.367188 5.132812 13.371094 5.257812 13.371094 5.382812 C 13.371094 6.324219 13.1875 7.3125 12.839844 8.242188 C 12.476562 9.214844 11.949219 10.097656 11.277344 10.859375 C 10.558594 11.675781 9.710938 12.3125 8.742188 12.757812 C 7.6875 13.25 6.515625 13.496094 5.257812 13.496094 C 4.355469 13.496094 3.464844 13.347656 2.617188 13.054688 C 2.929688 12.992188 3.230469 12.910156 3.527344 12.804688 C 4.207031 12.570312 4.835938 12.222656 5.40625 11.773438 L 6.507812 10.910156 L 5.105469 10.882812 C 4.289062 10.867188 3.554688 10.464844 3.097656 9.824219 C 3.324219 9.808594 3.550781 9.769531 3.769531 9.710938 L 5.664062 9.078125 L 3.738281 8.738281 C 2.8125 8.554688 2.085938 7.867188 1.820312 6.992188 C 2.066406 7.054688 2.304688 7.082031 2.570312 7.097656 C 2.570312 7.097656 3.5625 7.140625 4.3125 7.09375 C 3.90625 6.898438 2.863281 6.179688 2.863281 6.179688 C 2.160156 5.710938 1.738281 4.925781 1.738281 4.074219 C 1.738281 3.875 1.761719 3.675781 1.804688 3.480469 C 2.492188 4.179688 3.273438 4.765625 4.152344 5.214844 C 5.308594 5.8125 6.554688 6.148438 7.859375 6.210938 L 8.523438 6.246094 L 8.371094 5.601562 C 8.328125 5.414062 8.304688 5.222656 8.304688 5.023438 C 8.304688 3.632812 9.441406 2.5 10.835938 2.5 C 11.53125 2.5 12.203125 2.789062 12.679688 3.300781 L 12.867188 3.503906 L 13.140625 3.449219 C 13.28125 3.421875 13.417969 3.390625 13.554688 3.351562 C 13.523438 3.398438 13.378906 3.542969 13.210938 3.691406 C 13.070312 3.816406 12.65625 4.207031 12.65625 4.207031 C 12.65625 4.207031 13.0625 4.335938 13.316406 4.363281 C 13.570312 4.390625 13.859375 4.34375 13.90625 4.335938 C 13.820312 4.410156 13.664062 4.519531 13.570312 4.585938 Z M 13.570312 4.585938 "/>
</g>
</svg>
