<?xml version="1.0" encoding="UTF-8"?>
<svg xmlns="http://www.w3.org/2000/svg" xmlns:xlink="http://www.w3.org/1999/xlink" width="16pt" height="16pt" viewBox="0 0 16 16" version="1.1">
<g id="surface1">
<path style=" stroke:none;fill-rule:nonzero;fill:#999999;fill-opacity:1;" d="M 11.066406 9.011719 C 11.066406 9.5625 10.621094 10.007812 10.070312 10.007812 C 9.523438 10.007812 9.078125 9.5625 9.078125 9.011719 C 9.078125 8.464844 9.523438 8.019531 10.070312 8.019531 C 10.621094 8.019531 11.066406 8.464844 11.066406 9.011719 Z M 11.066406 9.011719 "/>
<path style=" stroke:none;fill-rule:nonzero;fill:#999999;fill-opacity:1;" d="M 6.941406 9.011719 C 6.941406 9.5625 6.496094 10.007812 5.945312 10.007812 C 5.398438 10.007812 4.953125 9.5625 4.953125 9.011719 C 4.953125 8.464844 5.398438 8.019531 5.945312 8.019531 C 6.496094 8.019531 6.941406 8.464844 6.941406 9.011719 Z M 6.941406 9.011719 "/>
<path style=" stroke:none;fill-rule:nonzero;fill:#999999;fill-opacity:1;" d="M 15.015625 7.84375 C 15.015625 6.976562 14.320312 6.273438 13.46875 6.273438 C 13.0625 6.273438 12.695312 6.429688 12.417969 6.691406 C 11.382812 5.960938 9.96875 5.488281 8.398438 5.417969 L 9.125 2.992188 L 11.300781 3.425781 C 11.304688 4.195312 11.929688 4.820312 12.691406 4.820312 C 13.460938 4.820312 14.082031 4.191406 14.082031 3.414062 C 14.082031 2.632812 13.460938 2 12.691406 2 C 12.109375 2 11.613281 2.363281 11.402344 2.875 L 8.742188 2.34375 L 7.820312 5.414062 L 7.601562 5.417969 C 6.027344 5.488281 4.617188 5.960938 3.578125 6.691406 C 3.304688 6.429688 2.933594 6.273438 2.527344 6.273438 C 1.675781 6.273438 0.980469 6.976562 0.980469 7.84375 C 0.980469 8.457031 1.324219 8.984375 1.828125 9.242188 C 1.804688 9.398438 1.789062 9.550781 1.789062 9.707031 C 1.796875 12.074219 4.574219 14 8 14 C 11.425781 14 14.203125 12.074219 14.203125 9.703125 C 14.203125 9.546875 14.191406 9.394531 14.167969 9.242188 C 14.671875 8.980469 15.015625 8.453125 15.015625 7.84375 Z M 12.691406 2.558594 C 13.152344 2.558594 13.527344 2.941406 13.527344 3.410156 C 13.527344 3.878906 13.152344 4.257812 12.691406 4.257812 C 12.226562 4.257812 11.851562 3.878906 11.851562 3.410156 C 11.851562 2.941406 12.226562 2.558594 12.691406 2.558594 Z M 1.539062 7.84375 C 1.539062 7.289062 1.984375 6.835938 2.53125 6.835938 C 2.757812 6.835938 2.964844 6.914062 3.132812 7.042969 C 2.589844 7.519531 2.191406 8.074219 1.976562 8.679688 C 1.710938 8.496094 1.539062 8.191406 1.539062 7.84375 Z M 12.074219 12.277344 C 10.992188 13.023438 9.546875 13.4375 8 13.4375 C 6.453125 13.4375 5.007812 13.023438 3.925781 12.277344 C 2.910156 11.574219 2.351562 10.660156 2.351562 9.703125 C 2.351562 9.601562 2.355469 9.5 2.367188 9.398438 C 2.390625 9.210938 2.4375 9.027344 2.503906 8.847656 C 2.679688 8.359375 3.003906 7.898438 3.460938 7.492188 C 3.601562 7.367188 3.75 7.25 3.914062 7.136719 C 3.914062 7.132812 3.921875 7.132812 3.925781 7.128906 C 5.007812 6.382812 6.453125 5.96875 8 5.96875 C 9.546875 5.96875 10.992188 6.382812 12.074219 7.128906 C 12.078125 7.132812 12.085938 7.132812 12.085938 7.136719 C 12.25 7.25 12.398438 7.367188 12.539062 7.492188 C 12.996094 7.898438 13.320312 8.359375 13.496094 8.847656 C 13.5625 9.027344 13.605469 9.210938 13.632812 9.398438 C 13.644531 9.5 13.648438 9.601562 13.648438 9.703125 C 13.648438 10.660156 13.089844 11.574219 12.074219 12.277344 Z M 14.023438 8.679688 C 13.808594 8.070312 13.410156 7.515625 12.867188 7.039062 C 13.035156 6.914062 13.242188 6.835938 13.46875 6.835938 C 14.015625 6.835938 14.460938 7.289062 14.460938 7.839844 C 14.460938 8.191406 14.289062 8.496094 14.023438 8.679688 Z M 14.023438 8.679688 "/>
<path style=" stroke:none;fill-rule:nonzero;fill:#999999;fill-opacity:1;" d="M 10.015625 11.183594 C 10.007812 11.191406 9.257812 11.941406 8 11.945312 C 6.722656 11.941406 5.988281 11.191406 5.980469 11.183594 L 5.585938 11.570312 C 5.625 11.609375 6.511719 12.492188 8 12.5 C 9.488281 12.492188 10.371094 11.609375 10.410156 11.570312 Z M 10.015625 11.183594 "/>
</g>
</svg>
