<?xml version="1.0" encoding="UTF-8"?>
<svg xmlns="http://www.w3.org/2000/svg" xmlns:xlink="http://www.w3.org/1999/xlink" width="16pt" height="16pt" viewBox="0 0 16 16" version="1.1">
<g id="surface1">
<path style=" stroke:none;fill-rule:evenodd;fill:#999999;fill-opacity:1;" d="M 5.710938 12 L 5.710938 6.652344 L 3.996094 6.652344 L 3.996094 12 Z M 4.917969 5.84375 C 5.492188 5.84375 5.847656 5.433594 5.847656 4.921875 C 5.835938 4.398438 5.492188 4 4.929688 4 C 4.367188 4 4 4.398438 4 4.921875 C 4 5.433594 4.355469 5.84375 4.90625 5.84375 Z M 4.917969 5.84375 "/>
<path style=" stroke:none;fill-rule:evenodd;fill:#999999;fill-opacity:1;" d="M 10.019531 6.53125 C 9.109375 6.53125 8.71875 7.042969 8.46875 7.398438 L 8.46875 6.65625 L 6.75 6.65625 L 6.75 12 L 8.46875 12 L 8.46875 8.957031 C 8.46875 8.800781 8.480469 8.644531 8.527344 8.535156 C 8.652344 8.222656 8.933594 7.898438 9.410156 7.898438 C 10.03125 7.898438 10.28125 8.378906 10.28125 9.078125 L 10.28125 12 L 12 12 L 12 8.878906 C 12 7.273438 11.148438 6.53125 10.019531 6.53125 Z M 10.019531 6.53125 "/>
<path style=" stroke:none;fill-rule:nonzero;fill:#999999;fill-opacity:1;" d="M 13.039062 2 L 3.023438 2 C 2.476562 2 2 2.394531 2 2.933594 L 2 12.96875 C 2 13.511719 2.476562 13.996094 3.023438 13.996094 L 13.035156 13.996094 C 13.585938 13.996094 13.996094 13.507812 13.996094 12.96875 L 13.996094 2.933594 C 14 2.394531 13.585938 2 13.039062 2 Z M 12.9375 13 C 12.902344 13 3.152344 13 3.097656 13 C 3.039062 13 3 12.957031 3 12.902344 C 3 12.851562 3 3.097656 3 3.0625 C 3 3.027344 3.03125 3 3.0625 3 C 3.09375 3 12.90625 3 12.9375 3 C 12.96875 3 13 3.03125 13 3.0625 C 13 3.789062 13 12.902344 13 12.9375 C 13 12.964844 12.972656 13 12.9375 13 Z M 12.9375 13 "/>
</g>
</svg>
