<?xml version="1.0" encoding="UTF-8"?>
<svg xmlns="http://www.w3.org/2000/svg" xmlns:xlink="http://www.w3.org/1999/xlink" width="16pt" height="16pt" viewBox="0 0 16 16" version="1.1">
<g id="surface1">
<path style=" stroke:none;fill-rule:nonzero;fill:#999999;fill-opacity:1;" d="M 9 6 L 9 4.808594 C 9 4.273438 9.117188 4 9.953125 4 L 11 4 L 11 2 L 9.253906 2 C 7.113281 2 6.40625 2.980469 6.40625 4.664062 L 6.40625 6 L 5 6 L 5 8 L 6.40625 8 L 6.40625 14 L 9 14 L 9 8 L 10.761719 8 L 11 6 Z M 10.320312 7.5 L 8.5 7.5 L 8.5 13.5 L 6.90625 13.5 L 6.90625 7.5 L 5.5 7.5 L 5.5 6.5 L 6.90625 6.5 L 6.90625 4.664062 C 6.90625 3.898438 7.074219 3.378906 7.390625 3.046875 C 7.742188 2.671875 8.363281 2.5 9.253906 2.5 L 10.5 2.5 L 10.5 3.5 L 9.953125 3.5 C 9.578125 3.5 9.09375 3.535156 8.792969 3.867188 C 8.539062 4.148438 8.5 4.492188 8.5 4.804688 L 8.5 6.5 L 10.4375 6.5 Z M 10.320312 7.5 "/>
</g>
</svg>
