<?xml version="1.0" encoding="UTF-8"?>
<svg xmlns="http://www.w3.org/2000/svg" xmlns:xlink="http://www.w3.org/1999/xlink" width="16pt" height="16pt" viewBox="0 0 16 16" version="1.1">
<g id="surface1">
<path style=" stroke:none;fill-rule:nonzero;fill:#999999;fill-opacity:1;" d="M 6.984375 2.566406 C 7.351562 2.867188 8.121094 3.492188 8.121094 4.691406 C 8.121094 5.855469 7.449219 6.40625 6.773438 6.925781 C 6.566406 7.132812 6.324219 7.351562 6.324219 7.695312 C 6.324219 8.042969 6.566406 8.234375 6.742188 8.375 L 7.320312 8.816406 C 8.023438 9.398438 8.664062 9.933594 8.664062 11.023438 C 8.664062 12.503906 7.207031 13.996094 4.445312 13.996094 C 2.121094 14 1 12.914062 1 11.746094 C 1 11.179688 1.289062 10.378906 2.234375 9.824219 C 3.226562 9.226562 4.578125 9.148438 5.296875 9.101562 C 5.070312 8.816406 4.816406 8.515625 4.816406 8.027344 C 4.816406 7.757812 4.898438 7.601562 4.976562 7.414062 C 4.800781 7.429688 4.621094 7.445312 4.460938 7.445312 C 2.761719 7.445312 1.800781 6.199219 1.800781 4.972656 C 1.800781 4.246094 2.136719 3.445312 2.828125 2.863281 C 3.742188 2.125 4.835938 2 5.699219 2 L 9.003906 2 L 7.976562 2.566406 Z M 5.84375 9.558594 C 5.714844 9.542969 5.632812 9.542969 5.476562 9.542969 C 5.332031 9.542969 4.464844 9.574219 3.789062 9.792969 C 3.4375 9.917969 2.414062 10.296875 2.414062 11.414062 C 2.414062 12.535156 3.519531 13.335938 5.234375 13.335938 C 6.773438 13.335938 7.589844 12.613281 7.589844 11.636719 C 7.589844 10.835938 7.0625 10.410156 5.84375 9.558594 M 6.308594 6.566406 C 6.679688 6.203125 6.710938 5.699219 6.710938 5.414062 C 6.710938 4.28125 6.019531 2.519531 4.6875 2.519531 C 4.273438 2.519531 3.820312 2.722656 3.566406 3.039062 C 3.292969 3.367188 3.210938 3.792969 3.210938 4.203125 C 3.210938 5.257812 3.835938 7.007812 5.21875 7.007812 C 5.617188 7.007812 6.050781 6.820312 6.308594 6.566406 "/>
<path style=" stroke:none;fill-rule:nonzero;fill:#999999;fill-opacity:1;" d="M 15 4.445312 L 12.554688 4.445312 L 12.554688 2.003906 L 12 2.003906 L 12 4.445312 L 9.507812 4.445312 L 9.507812 5.003906 L 12 5.003906 L 12 7.53125 L 12.554688 7.53125 L 12.554688 5.003906 L 15 5.003906 Z M 15 4.445312 "/>
</g>
</svg>
